<svg width="32" height="32" viewBox="0 0 32 32" fill="none" xmlns="http://www.w3.org/2000/svg">
<path d="M24.75 3.5H23.5V2.25C23.5 1.56 22.9412 1 22.25 1C21.5588 1 21 1.56 21 2.25V3.5H11V2.25C11 1.56 10.4412 1 9.75 1C9.05875 1 8.5 1.56 8.5 2.25V3.5H7.25C3.80375 3.5 1 6.30375 1 9.75V24.75C1 28.1962 3.80375 31 7.25 31H24.75C28.1962 31 31 28.1962 31 24.75V9.75C31 6.30375 28.1962 3.5 24.75 3.5ZM7.25 6H24.75C26.8175 6 28.5 7.6825 28.5 9.75V11H3.5V9.75C3.5 7.6825 5.1825 6 7.25 6ZM24.75 28.5H7.25C5.1825 28.5 3.5 26.8175 3.5 24.75V13.5H28.5V24.75C28.5 26.8175 26.8175 28.5 24.75 28.5ZM24.75 18.5C24.75 19.19 24.1912 19.75 23.5 19.75H8.5C7.80875 19.75 7.25 19.19 7.25 18.5C7.25 17.81 7.80875 17.25 8.5 17.25H23.5C24.1912 17.25 24.75 17.81 24.75 18.5ZM16 23.5C16 24.19 15.4412 24.75 14.75 24.75H8.5C7.80875 24.75 7.25 24.19 7.25 23.5C7.25 22.81 7.80875 22.25 8.5 22.25H14.75C15.4412 22.25 16 22.81 16 23.5Z" fill="black"/>
</svg>
