<svg width="458" height="458" viewBox="0 0 458 458" fill="none" xmlns="http://www.w3.org/2000/svg">
<mask id="path-1-outside-1_1_2" maskUnits="userSpaceOnUse" x="12" y="2" width="433" height="454" fill="black">
<rect fill="white" x="12" y="2" width="433" height="454"/>
<path fill-rule="evenodd" clip-rule="evenodd" d="M229 410.613C204.576 409.261 180.028 402.928 156.821 391.135C67.3428 345.671 31.6632 236.28 77.1271 146.802C122.591 57.3242 231.982 21.6455 321.459 67.1093C355.933 84.6258 383.92 112.681 401.352 147.197C405.594 156.293 416.405 160.23 425.502 155.988C434.599 151.747 438.535 140.935 434.293 131.839C434.136 131.501 433.969 131.169 433.791 130.842C379.514 23.327 248.356 -19.8292 140.842 34.4478C33.3277 88.7249 -9.82937 219.884 44.4477 327.398C80.0093 397.839 150.692 443.334 229 446.958V410.613Z"/>
</mask>
<path fill-rule="evenodd" clip-rule="evenodd" d="M229 410.613C204.576 409.261 180.028 402.928 156.821 391.135C67.3428 345.671 31.6632 236.28 77.1271 146.802C122.591 57.3242 231.982 21.6455 321.459 67.1093C355.933 84.6258 383.92 112.681 401.352 147.197C405.594 156.293 416.405 160.23 425.502 155.988C434.599 151.747 438.535 140.935 434.293 131.839C434.136 131.501 433.969 131.169 433.791 130.842C379.514 23.327 248.356 -19.8292 140.842 34.4478C33.3277 88.7249 -9.82937 219.884 44.4477 327.398C80.0093 397.839 150.692 443.334 229 446.958V410.613Z" fill="black"/>
<path d="M229 410.613H237V403.043L229.442 402.625L229 410.613ZM156.821 391.135L160.445 384.003L160.444 384.003L156.821 391.135ZM77.1271 146.802L69.9949 143.178L77.1271 146.802ZM321.459 67.1093L325.083 59.9772L325.083 59.9772L321.459 67.1093ZM401.352 147.197L408.603 143.817L408.55 143.703L408.493 143.591L401.352 147.197ZM425.502 155.988L422.122 148.738L425.502 155.988ZM434.293 131.839L441.544 128.458L441.541 128.452L434.293 131.839ZM433.791 130.842L426.649 134.447L426.705 134.557L426.764 134.666L433.791 130.842ZM140.842 34.4478L144.447 41.5894L140.842 34.4478ZM44.4477 327.398L51.5892 323.792H51.5892L44.4477 327.398ZM229 446.958L228.63 454.95L237 455.337V446.958H229ZM229.442 402.625C206.105 401.333 182.644 395.283 160.445 384.003L153.197 398.267C177.413 410.572 203.046 417.189 228.558 418.6L229.442 402.625ZM160.444 384.003C74.9056 340.541 40.7967 235.965 84.2592 150.426L69.9949 143.178C22.5297 236.595 59.7799 350.802 153.197 398.267L160.444 384.003ZM84.2592 150.426C127.722 64.8871 232.297 30.779 317.836 74.2415L325.083 59.9772C231.667 12.5119 117.46 49.7612 69.9949 143.178L84.2592 150.426ZM317.835 74.2414C350.791 90.9869 377.547 117.807 394.211 150.804L408.493 143.591C390.294 107.555 361.074 78.2648 325.083 59.9772L317.835 74.2414ZM394.102 150.578C400.21 163.678 415.781 169.348 428.883 163.239L422.122 148.738C417.029 151.112 410.977 148.909 408.603 143.817L394.102 150.578ZM428.883 163.239C441.984 157.131 447.652 141.559 441.544 128.458L427.043 135.219C429.417 140.312 427.214 146.363 422.122 148.738L428.883 163.239ZM441.541 128.452C441.319 127.977 441.079 127.498 440.818 127.018L426.764 134.666C426.859 134.84 426.952 135.026 427.045 135.225L441.541 128.452ZM440.932 127.237C384.664 15.7775 248.695 -28.9619 137.236 27.3063L144.447 41.5894C248.017 -10.6965 374.363 30.8765 426.649 134.447L440.932 127.237ZM137.236 27.3063C25.7782 83.5745 -18.9621 219.545 37.3061 331.003L51.5892 323.792C-0.696676 220.222 40.8772 93.8753 144.447 41.5894L137.236 27.3063ZM37.3061 331.003C74.1725 404.029 147.448 451.193 228.63 454.95L229.37 438.967C153.936 435.476 85.846 391.65 51.5892 323.792L37.3061 331.003ZM237 446.958V410.613H221V446.958H237Z" fill="black" mask="url(#path-1-outside-1_1_2)"/>
<ellipse cx="237.105" cy="429.203" rx="26.105" ry="26.1034" fill="black"/>
</svg>
